# xmcd
#
# Track frame offsets: 
#        150
#        19883
#        41249
#        59081
#        76381
#        95658
#        117936
#        137219
#        154936
#        178450
#        195224
#        219076
#        239208
#        262382
#        282920
#        301337
#
# Disc length: 4257 seconds
#
# Revision: 0
# Processed by: cddbd v1.5.2PL0 Copyright (c) Steve Scherf et al.
# Submitted via: ExactAudioCopy v1.0b2
#
DISCID=f9109f10
DTITLE=王菲 - 阿菲正传 3
DYEAR=2009
DGENRE=Pop
TTITLE0=你在我心中
TTITLE1=一人分饰两角
TTITLE2=誓言
TTITLE3=不得了
TTITLE4=心惊胆战
TTITLE5=我也不想这样
TTITLE6=红豆
TTITLE7=蝴蝶
TTITLE8=开到茶靡
TTITLE9=只爱陌生人
TTITLE10=守望麦田
TTITLE11=笑忘书
TTITLE12=萤火虫
TTITLE13=流年
TTITLE14=迷魂记
TTITLE15=我爱雀斑
EXTD=
EXTT0=
EXTT1=
EXTT2=
EXTT3=
EXTT4=
EXTT5=
EXTT6=
EXTT7=
EXTT8=
EXTT9=
EXTT10=
EXTT11=
EXTT12=
EXTT13=
EXTT14=
EXTT15=
PLAYORDER=
